<svg width="105" height="27" viewBox="0 0 105 27" fill="none" xmlns="http://www.w3.org/2000/svg">
<path d="M101.294 10.7231C103.401 10.7231 105 12.3415 105 14.548C105 16.6075 103.401 18.3728 101.294 18.3728C99.1871 18.3728 97.5166 16.6075 97.5166 14.548C97.5157 12.3415 99.1871 10.7231 101.294 10.7231Z" fill="#F21A05"/>
<path d="M50.1055 5.04359C48.7726 3.85644 46.923 3.26196 44.5567 3.26196C42.8407 3.27098 40.8877 3.75901 38.7022 4.72605L38.4884 3.56506L35.9973 3.7103V18.4369H38.9597V7.27535C39.7242 6.93707 40.6178 6.65471 41.6433 6.42829C42.6696 6.20006 43.5356 6.0873 44.243 6.0873C46.2165 6.0873 47.5271 6.40574 48.1712 7.04351C48.8145 7.68219 49.137 8.70155 49.137 10.1007L49.1664 18.4351H52.1012V10.1007C52.1021 7.91854 51.4357 6.23164 50.1055 5.04359Z" fill="#00113D"/>
<path d="M64.0796 15.8776L64.0404 15.4943L63.7544 15.5358L63.6528 15.5511C63.3953 15.5899 63.0149 15.6314 62.5079 15.6756C62.0028 15.7189 61.4958 15.7396 60.9898 15.7396C59.6542 15.7396 58.7143 15.5646 58.1699 15.2182C57.6255 14.8691 57.3538 14.17 57.3538 13.1173V6.26139H62.5133L62.5195 3.50732H57.3529V0L55.5354 0.216501L54.5633 3.50732H52.3449L52.1025 6.26139H54.4208V13.1173C54.4208 16.74 56.5493 18.5523 60.8053 18.5523C62.0945 18.5523 63.2688 18.4558 64.3264 18.2628L64.0796 15.8776Z" fill="#00113D"/>
<path d="M14.4611 5.45305C13.0062 4.05661 11.0283 3.3584 8.52736 3.3584C6.88534 3.36832 5.0197 3.85635 2.93042 4.82249L2.7157 3.6633L0.224609 3.80764V26.2732L2.29874 26.2804L3.18345 25.3657V20.9987H3.18791V17.4021C3.93096 17.7593 4.68114 18.0408 5.43755 18.2446C6.43809 18.5144 7.44842 18.6479 8.47034 18.6479C8.82049 18.6479 9.15994 18.6343 9.4887 18.6064C11.5165 18.4377 13.1648 17.7485 14.4326 16.5397C15.9071 15.1333 16.6448 13.285 16.6448 10.9892C16.6448 8.69425 15.916 6.84948 14.4611 5.45305ZM12.493 14.4974C11.7 15.3913 10.2692 15.8388 8.19771 15.8388C6.72854 15.8388 5.05801 15.4608 3.18791 14.7076V7.40336C4.84774 6.59058 6.51827 6.18554 8.19771 6.18554C8.92651 6.18554 9.5769 6.23876 10.1462 6.34792C11.2038 6.54728 11.9887 6.93247 12.5001 7.50439C13.2868 8.38303 13.6806 9.54582 13.6806 10.9901C13.6806 12.4343 13.2841 13.6034 12.493 14.4974Z" fill="#00113D"/>
<path d="M72.3564 18.6742C73.2795 18.6444 74.1179 18.519 74.8743 18.2971C73.9949 18.5208 73.1556 18.6444 72.3564 18.6742Z" fill="#00113D"/>
<path d="M79.463 3.52002V11.8553C79.463 14.0284 78.7983 15.7108 77.4664 16.8998C76.759 17.5303 75.9063 17.994 74.9067 18.289C74.896 18.2926 74.8844 18.2962 74.8737 18.298C73.9961 18.5208 73.156 18.6453 72.3568 18.6742C72.2142 18.6796 72.0672 18.6814 71.9193 18.6814C71.7973 18.6814 71.6734 18.6796 71.5496 18.6742C70.7495 18.6444 69.9111 18.5208 69.0326 18.298C69.0219 18.298 69.0121 18.2944 68.9997 18.289C67.9991 17.994 67.1474 17.5303 66.44 16.8998C65.1071 15.7108 64.4434 14.0293 64.4434 11.8553V3.52002H67.4058V11.8553C67.4058 13.2563 67.7274 14.2747 68.3716 14.9125C68.9756 15.5106 70.1633 15.8272 71.9389 15.866H71.9683C73.7413 15.8272 74.9289 15.5106 75.5357 14.9125C76.1798 14.2765 76.5015 13.2563 76.5015 11.8553V3.52002H79.463Z" fill="#00113D"/>
<path d="M31.9069 11.4359C31.2859 15.8525 25.0947 16.4118 22.0682 14.1962H22.0673C20.0618 12.4498 20.0493 9.22484 21.8303 7.25558C23.1837 5.95116 25.2177 5.75361 27.0094 5.86005L28.0687 3.10508C24.7116 2.61344 20.8235 3.42261 18.7761 6.37695C16.9648 8.94158 17.094 13.1976 19.3365 15.5692C23.7833 20.4206 34.4595 18.6868 34.9478 11.435H31.9069V11.4359Z" fill="#00113D"/>
<path d="M34.9815 10.4698H31.9585C31.9211 8.21814 30.2407 6.25881 27.9849 5.98277L29.0201 3.29004C32.3274 3.99818 35.0706 6.95071 34.9815 10.4698Z" fill="#F21A05"/>
<path d="M81.4472 4.79275C83.0367 3.80407 85.6311 3.09863 88.1971 3.09863C91.8509 3.09863 95.338 4.56723 95.3095 8.69067L95.2819 14.1131V14.2827C95.2819 15.5538 95.5055 16.1185 96.8161 16.1185H97.0112V18.6885C93.8314 18.6885 92.1297 17.9542 92.1297 15.2146C90.7906 17.4175 88.0011 18.7444 84.9335 18.8292C81.5862 18.942 79.9683 16.9087 79.9683 14.7338C79.9683 12.1917 82.2001 9.42407 86.4392 9.53683L89.8703 9.59366C90.6516 9.62163 92.046 9.6505 92.1297 8.68977C92.1021 6.6285 90.1768 5.92217 88.0011 5.92217C85.9091 5.92217 83.5659 6.57167 82.3667 7.30597L81.4472 4.79275ZM89.7874 12.1078L86.5239 12.051C84.4319 12.023 83.2879 13.294 83.2879 14.4234C83.2879 15.3833 84.1245 16.2592 85.9661 16.1744C88.2817 16.0328 92.0192 14.4234 92.1306 11.6838V11.5142C91.5444 11.9662 90.763 12.1078 89.7874 12.1078Z" fill="#00113D"/>
</svg>
