<svg width="169" height="50" viewBox="0 0 169 50" fill="none" xmlns="http://www.w3.org/2000/svg">
<path d="M157.907 22.8091C161.07 22.8091 163.47 25.1653 163.47 28.3778C163.47 31.3763 161.07 33.9466 157.907 33.9466C154.743 33.9466 152.235 31.3763 152.235 28.3778C152.234 25.1653 154.743 22.8091 157.907 22.8091Z" fill="#F21A05"/>
<path d="M81.0533 14.5391C79.0529 12.8109 76.2761 11.9453 72.7226 11.9453C70.1462 11.9578 67.215 12.6687 63.9337 14.0766L63.6122 12.3859L59.8726 12.5969V34.0375H64.3203V17.7891C65.4677 17.2969 66.8092 16.8859 68.3496 16.5563C69.89 16.2234 71.1902 16.0594 72.2532 16.0594C75.2162 16.0594 77.1831 16.5234 78.1507 17.4516C79.1166 18.3813 79.6004 19.8656 79.6004 21.9031L79.6449 34.0375H84.0513V21.9031C84.0513 18.725 83.0504 16.2688 81.0533 14.5391Z" fill="#EAEAEA"/>
<path d="M102.033 30.3124L101.975 29.7546L101.545 29.8155L101.392 29.8374C101.005 29.8937 100.434 29.9546 99.6734 30.0187C98.9144 30.0812 98.1537 30.1124 97.3946 30.1124C95.3896 30.1124 93.978 29.8577 93.1617 29.353C92.3437 28.8452 91.9363 27.8265 91.9363 26.2937V16.3124H99.683L99.6925 12.303H91.9363V7.19678L89.2072 7.5124L87.7464 12.303H84.4157L84.0513 16.3124H87.5315V26.2937C87.5315 31.5687 90.7269 34.2062 97.1162 34.2062C99.0512 34.2062 100.814 34.0655 102.403 33.7843L102.033 30.3124Z" fill="#EAEAEA"/>
<path d="M27.5412 15.1359C25.3563 13.1031 22.3869 12.0859 18.6329 12.0859C16.1679 12.1 13.3672 12.8109 10.2307 14.2172L9.90761 12.5297L6.16797 12.7406V45.4484L9.28222 45.4594L10.611 44.1281V37.7703H10.6173V32.5344C11.7329 33.0547 12.8595 33.4641 13.9942 33.7609C15.4964 34.1531 17.0129 34.3484 18.547 34.3484C19.0721 34.3484 19.5829 34.3281 20.0763 34.2875C23.1205 34.0422 25.595 33.0391 27.4983 31.2781C29.7118 29.2313 30.8194 26.5391 30.8194 23.1969C30.8194 19.8547 29.7261 17.1688 27.5412 15.1359ZM24.5861 28.3031C23.3958 29.6047 21.2475 30.2563 18.138 30.2563C15.9324 30.2563 13.4245 29.7063 10.6173 28.6094V17.975C13.1094 16.7922 15.6173 16.2016 18.138 16.2016C19.2328 16.2016 20.2083 16.2797 21.0629 16.4375C22.651 16.7281 23.8286 17.2891 24.5972 18.1219C25.778 19.4016 26.37 21.0938 26.37 23.1969C26.37 25.3 25.7748 27.0016 24.5861 28.3031Z" fill="#EAEAEA"/>
<path d="M114.46 34.3844C115.846 34.3406 117.105 34.1578 118.239 33.8359C116.92 34.1609 115.66 34.3406 114.46 34.3844Z" fill="#EAEAEA"/>
<path d="M125.13 12.3218V24.4577C125.13 27.6218 124.132 30.0718 122.132 31.8015C121.07 32.7202 119.791 33.3952 118.289 33.8233C118.273 33.828 118.255 33.8343 118.239 33.8358C116.922 34.1608 115.66 34.3405 114.461 34.3843C114.247 34.3921 114.027 34.3937 113.804 34.3937C113.621 34.3937 113.435 34.3905 113.249 34.3843C112.047 34.3405 110.789 34.1608 109.471 33.8358C109.455 33.8358 109.441 33.8312 109.422 33.8233C107.92 33.3952 106.64 32.7202 105.579 31.8015C103.578 30.0702 102.581 27.6218 102.581 24.4577V12.3218H107.028V24.4577C107.028 26.4983 107.512 27.9796 108.478 28.9093C109.385 29.7796 111.169 30.2421 113.833 30.2968H113.877C116.54 30.2405 118.322 29.7796 119.232 28.9093C120.198 27.9827 120.682 26.4983 120.682 24.4577V12.3218H125.13Z" fill="#EAEAEA"/>
<path d="M53.7315 24.3985C52.7989 30.8282 43.5039 31.6423 38.9607 28.4173H38.9591C35.9483 25.8751 35.9292 21.1782 38.6026 18.3126C40.6348 16.4142 43.6885 16.1251 46.3779 16.2813L47.9676 12.2704C42.9279 11.5548 37.0909 12.7329 34.0164 17.0345C31.2968 20.7688 31.4909 26.9642 34.8582 30.4173C41.5339 37.4798 57.5634 34.9563 58.2954 24.3985H53.7315Z" fill="#EAEAEA"/>
<path d="M58.3482 22.9922H53.8097C53.754 19.7141 51.2301 16.8609 47.8438 16.4594L49.3985 12.5391C54.3635 13.5688 58.4818 17.8687 58.3482 22.9922Z" fill="#F21A05"/>
<path d="M128.107 14.1747C130.494 12.7356 134.388 11.7075 138.241 11.7075C143.726 11.7075 148.962 13.845 148.919 19.8481L148.877 27.7435V27.9903C148.877 29.8403 149.213 30.6622 151.18 30.6622H151.473V34.4044C146.699 34.4044 144.145 33.3356 144.145 29.3466C142.135 32.5544 137.947 34.4856 133.341 34.6091C128.316 34.7731 125.887 31.8138 125.887 28.6466C125.887 24.9466 129.237 20.9169 135.603 21.081L140.754 21.1638C141.927 21.2044 144.021 21.2466 144.146 19.8481C144.105 16.8466 141.215 15.8185 137.948 15.8185C134.807 15.8185 131.29 16.7638 129.489 17.8341L128.107 14.1747ZM140.63 24.8231L135.73 24.7403C132.589 24.6997 130.872 26.5497 130.872 28.1935C130.872 29.5919 132.127 30.8669 134.891 30.7435C138.367 30.5372 143.978 28.1935 144.146 24.206V23.9591C143.268 24.6185 142.095 24.8231 140.63 24.8231Z" fill="#EAEAEA"/>
</svg>
